<svg xmlns="http://www.w3.org/2000/svg" xmlns:xlink="http://www.w3.org/1999/xlink" width="24px" height="14px" viewBox="0 0 24 14" version="1.1">
    <!-- Generator: Sketch 41 (35326) - http://www.bohemiancoding.com/sketch -->
    <title>Shape</title>
    <desc>Created with Sketch.</desc>
    <defs/>
    <g id="Page-1" stroke="none" stroke-width="1" fill="none" fill-rule="evenodd">
        <g id="arrowSkyviv" fill="#706F70">
            <g id="Welcome">
                <g id="Desktop">
                    <g id="Group">
                        <g id="Shape">
                            <path d="M12.1813914,17.9370578 L12.1813914,-2.69358228 L17.501083,2.64384159 C17.6219217,2.76508309 17.7805612,2.82570383 17.9392008,2.82570383 C18.0978403,2.82570383 18.2564798,2.76508309 18.3773185,2.64384159 C18.6193058,2.40104771 18.6193058,2.00747915 18.3773185,1.7643744 L12.0837909,-4.5501316 C11.8421135,-4.79292548 11.4492328,-4.79292548 11.2075554,-4.5501316 L4.91371801,1.76468528 C4.67173075,2.00747915 4.67173075,2.40104771 4.91371801,2.64415246 C5.15539541,2.88694634 5.54827612,2.88694634 5.78995353,2.64415246 L10.9420201,-2.52508768 L10.9420201,17.9370578 C10.9420201,18.2802645 11.2196393,18.5588091 11.5617058,18.5588091 C11.9037723,18.5588091 12.1813914,18.2802645 12.1813914,17.9370578 Z" transform="translate(11.645518, 6.913291) rotate(90.000000) translate(-11.645518, -6.913291) "/>
                        </g>
                    </g>
                </g>
            </g>
        </g>
    </g>
</svg>