<?xml version="1.0" encoding="UTF-8" standalone="no"?>
<svg width="24px" height="14px" viewBox="0 0 24 14" version="1.1" xmlns="http://www.w3.org/2000/svg" xmlns:xlink="http://www.w3.org/1999/xlink">
    <!-- Generator: Sketch 40.3 (33839) - http://www.bohemiancoding.com/sketch -->
    <title></title>
    <desc>Created with Sketch.</desc>
    <defs></defs>
    <g id="Welcome" stroke="none" stroke-width="1" fill="none" fill-rule="evenodd">
        <g id="Desktop" transform="translate(-85.000000, -1584.000000)" fill="#D0D0D0">
            <g id="" transform="translate(85.000000, 1584.000000)">
                <g id="Group" transform="translate(0.000000, 0.000000)">
                    <path d="M12.1813912,17.9370575 L12.1813912,-2.69358263 L17.5010828,2.64384124 C17.6219215,2.76508274 17.780561,2.82570348 17.9392006,2.82570348 C18.0978401,2.82570348 18.2564796,2.76508274 18.3773183,2.64384124 C18.6193056,2.40104736 18.6193056,2.0074788 18.3773183,1.76437405 L12.0837907,-4.55013195 C11.8421133,-4.79292583 11.4492326,-4.79292583 11.2075552,-4.55013195 L4.9137178,1.76468493 C4.67173054,2.0074788 4.67173054,2.40104736 4.9137178,2.64415211 C5.1553952,2.88694599 5.54827591,2.88694599 5.78995332,2.64415211 L10.9420199,-2.52508803 L10.9420199,17.9370575 C10.9420199,18.2802642 11.2196391,18.5588088 11.5617056,18.5588088 C11.9037721,18.5588088 12.1813912,18.2802642 12.1813912,17.9370575 Z" id="Shape" transform="translate(11.645518, 6.913291) rotate(90.000000) translate(-11.645518, -6.913291) "></path>
                </g>
            </g>
        </g>
    </g>
</svg>
