<?xml version="1.0" encoding="utf-8"?>
<!-- Generator: Adobe Illustrator 16.0.0, SVG Export Plug-In . SVG Version: 6.00 Build 0)  -->
<!DOCTYPE svg PUBLIC "-//W3C//DTD SVG 1.1//EN" "http://www.w3.org/Graphics/SVG/1.1/DTD/svg11.dtd">
<svg version="1.1" id="Layer_1" xmlns="http://www.w3.org/2000/svg" xmlns:xlink="http://www.w3.org/1999/xlink" x="0px" y="0px"
   width="600px" height="600px" viewBox="0 0 600 600" enable-background="new 0 0 600 600" xml:space="preserve">
<g>
  <path fill="#6762A6" d="M154.915,588.343v-50.502c0-3.56-2.61-5.097-5.687-5.097c-6.168,0-13.874,1.537-20.868,4.62v50.979h-14.224
    v-93.769h14.224v30.936c6.76-2.486,14.82-4.619,22.881-4.619c12.921,0,17.782,7.943,17.782,18.845v48.607H154.915L154.915,588.343
    L154.915,588.343z M195.57,557.759c0.474,16.951,3.794,20.272,14.222,20.272c8.181,0,17.428-2.729,24.542-5.457l2.37,10.666
    c-7.587,3.443-16.833,6.76-27.854,6.76c-23.713,0-27.39-13.035-27.39-33.785c0-11.377,0.833-21.691,3.558-31.176
    c7.112-2.729,16.596-4.148,28.566-4.148c19.447,0,25.372,10.787,25.372,29.637v7.231H195.57L195.57,557.759L195.57,557.759z
     M213.584,532.744c-4.262,0-11.022,0.119-16.593,1.182c-0.59,2.847-1.304,6.761-1.542,13.992h29.636
    C225.086,538.075,223.308,532.744,213.584,532.744L213.584,532.744L213.584,532.744z M265.624,537.364v50.979h-14.226v-57.378
    c11.974-6.519,24.657-8.535,32.958-9.128v11.854C278.546,534.165,271.193,534.877,265.624,537.364L265.624,537.364L265.624,537.364
    z M321.933,590c-21.224,0-30.825-10.429-30.825-34.258c0-25.251,12.682-34.854,30.825-34.854c21.217,0,30.819,10.433,30.819,34.261
    C352.752,580.399,340.065,590,321.933,590L321.933,590L321.933,590z M321.933,532.744c-10.909,0-16.954,6.282-16.954,22.998
    c0,18.259,5.098,22.289,16.954,22.289c10.903,0,16.95-6.167,16.95-22.882C338.883,536.891,333.783,532.744,321.933,532.744
    L321.933,532.744L321.933,532.744z M421.383,588.343h-16.715c-3.91-10.431-9.367-21.102-17.783-30.348h-7.469v30.348h-14.225
    v-93.769h14.225v53.816h6.64c7.231-7.471,12.802-16.714,16.716-25.843h16.001c-5.451,11.025-12.444,20.746-20.271,28.688
    C407.869,563.092,415.219,575.657,421.383,588.343L421.383,588.343L421.383,588.343z M448.047,590
    c-12.92,0-17.778-7.938-17.778-18.847v-48.604h14.104v50.381c0,3.563,2.606,5.103,5.689,5.103c6.162,0,14.58-1.54,21.578-4.623
    V522.55h14.225v57.141C469.031,588.935,456.108,590,448.047,590L448.047,590L448.047,590z"/>
  <g>
    <path fill="#6762A6" d="M441.762,470.674h-283.69c-24.266,0-43.936-19.668-43.936-43.933V53.934
      c0-24.264,19.67-43.934,43.936-43.934H441.76c24.264,0,43.939,19.669,43.939,43.934v372.807
      C485.701,451.006,466.023,470.674,441.762,470.674L441.762,470.674L441.762,470.674z"/>
    <path fill="#FFFFFF" d="M346.992,407.287V224.34c0,0,11.896-43.78-146.58,17.91c-0.29,0.782-0.29-169.171-0.29-169.171
      l51.78-0.318v108.89c0,0,144.982-57.104,144.982,43.305v182.332L346.992,407.287L346.992,407.287L346.992,407.287z
       M376.496,138.663h-54.925c19.771-24.171,37.667-65.585,37.667-65.585h56.789C416.027,73.077,406.309,100.065,376.496,138.663
      L376.496,138.663L376.496,138.663z M201.063,406.969V302.786l52.096,52.099L201.063,406.969L201.063,406.969z"/>
  </g>
</g>
</svg>
