<svg xmlns="http://www.w3.org/2000/svg" xmlns:xlink="http://www.w3.org/1999/xlink" width="58px" height="63px" viewBox="0 0 58 63" version="1.1">
    <!-- Generator: Sketch 42 (36781) - http://www.bohemiancoding.com/sketch -->
    <title>Artboard Copy</title>
    <desc>Created with Sketch.</desc>
    <defs/>
    <g id="Welcome" stroke="none" stroke-width="1" fill="none" fill-rule="evenodd">
        <g id="Artboard-Copy" fill="#30302F">
            <g id="Page-1-Copy-8" transform="translate(7.000000, 7.000000)">
                <path d="M40.492,26.43 L38.941,26.43 L38.941,13.723 L27.031,0.414 L6.328,0.414 C3.145,0.414 0.555,3.004 0.555,6.188 L0.555,43.012 C0.555,46.195 3.145,48.785 6.328,48.785 L33.168,48.785 C36.352,48.785 38.941,46.195 38.941,43.012 L38.941,42.207 L40.492,42.207 C42.73,42.207 44.555,40.387 44.555,38.145 L44.555,30.492 C44.551,28.254 42.73,26.43 40.492,26.43 Z M27.465,3.238 L36.414,13.242 L27.465,13.242 L27.465,3.238 Z M37.379,43.012 C37.379,45.336 35.488,47.223 33.168,47.223 L6.328,47.223 C4.004,47.223 2.117,45.332 2.117,43.012 L2.117,6.188 C2.117,3.863 4.008,1.977 6.328,1.977 L25.902,1.977 L25.902,14.801 L37.379,14.801 L37.379,26.43 L20.262,26.43 C18.023,26.43 16.199,28.25 16.199,30.492 L16.199,38.148 C16.199,40.387 18.02,42.211 20.262,42.211 L37.383,42.211 L37.383,43.012 L37.379,43.012 Z M42.988,38.148 C42.988,39.527 41.867,40.648 40.488,40.648 L20.262,40.648 C18.883,40.648 17.762,39.527 17.762,38.148 L17.762,30.492 C17.762,29.113 18.883,27.992 20.262,27.992 L40.492,27.992 C41.871,27.992 42.992,29.113 42.992,30.492 L42.992,38.148 L42.988,38.148 Z" id="Fill-1"/>
                <path d="M25.438,31.125 L22.359,31.125 L22.359,38.152 L23.293,38.152 L23.293,35.277 L25.438,35.277 C26.836,35.289 27.594,34.5 27.594,33.203 C27.594,31.902 26.836,31.125 25.438,31.125 Z M25.121,34.492 L23.289,34.492 L23.289,31.914 L25.121,31.914 C26.176,31.914 26.656,32.367 26.656,33.203 C26.656,34.039 26.176,34.504 25.121,34.492 Z" id="Fill-2"/>
                <path d="M31.145,31.125 L28.734,31.125 L28.734,38.152 L31.145,38.152 C33.488,38.152 34.52,36.824 34.52,34.473 C34.52,32.211 33.309,31.125 31.145,31.125 Z M31.223,37.367 L29.668,37.367 L29.668,31.914 L31.242,31.914 C32.965,31.914 33.586,32.926 33.586,34.602 C33.586,37.188 31.863,37.367 31.223,37.367 Z" id="Fill-3"/>
                <polygon id="Fill-4" points="35.66 38.152 36.598 38.152 36.598 34.934 39.824 34.934 39.824 34.148 36.598 34.148 36.598 31.914 40.277 31.914 40.277 31.125 35.66 31.125"/>
            </g>
        </g>
    </g>
</svg>